<mxfile modified="2021-02-04T16:31:39.648Z" host="app.diagrams.net" agent="5.0 (X11; Linux x86_64) AppleWebKit/537.36 (KHTML, like Gecko) Chrome/88.0.4324.96 Safari/537.36" etag="MAaOOC7VyuOq8Ud_mN6A" version="13.3.9" type="github" pages="2">
  <diagram id="Ht1M8jgEwFfnCIfOTk4-" name="Current">
    <mxGraphModel dx="1673" dy="952" grid="1" gridSize="10" guides="1" tooltips="1" connect="1" arrows="1" fold="1" page="1" pageScale="1" pageWidth="827" pageHeight="1169" math="0" shadow="0">
      <root>
        <mxCell id="0" />
        <mxCell id="1" parent="0" />
        <mxCell id="ck2-3J0O5yFSTgMgaM3f-32" value="" style="rounded=0;whiteSpace=wrap;html=1;fillColor=none;" vertex="1" parent="1">
          <mxGeometry x="20" y="110" width="1220" height="860" as="geometry" />
        </mxCell>
        <mxCell id="jZVaUwOg5UY3L9NAnvdq-74" value="Ingress API" style="outlineConnect=0;fontColor=#232F3E;gradientColor=#945DF2;gradientDirection=north;fillColor=#5A30B5;strokeColor=#ffffff;dashed=0;verticalLabelPosition=bottom;verticalAlign=top;align=center;html=1;fontSize=12;fontStyle=0;aspect=fixed;shape=mxgraph.aws4.resourceIcon;resIcon=mxgraph.aws4.api_gateway;labelBackgroundColor=none;" parent="1" vertex="1">
          <mxGeometry x="450" y="378.99999999999994" width="78" height="78" as="geometry" />
        </mxCell>
        <mxCell id="jZVaUwOg5UY3L9NAnvdq-110" style="edgeStyle=elbowEdgeStyle;rounded=0;orthogonalLoop=1;jettySize=auto;html=1;endArrow=open;endFill=0;strokeColor=#545B64;strokeWidth=2;fontSize=14;" parent="1" target="jZVaUwOg5UY3L9NAnvdq-74" edge="1">
          <mxGeometry relative="1" as="geometry">
            <mxPoint x="240" y="418" as="sourcePoint" />
          </mxGeometry>
        </mxCell>
        <mxCell id="jZVaUwOg5UY3L9NAnvdq-115" value="" style="edgeStyle=elbowEdgeStyle;rounded=0;orthogonalLoop=1;jettySize=auto;html=1;endArrow=open;endFill=0;strokeColor=#545B64;strokeWidth=2;fontSize=14;" parent="1" source="jZVaUwOg5UY3L9NAnvdq-81" target="jZVaUwOg5UY3L9NAnvdq-77" edge="1">
          <mxGeometry relative="1" as="geometry" />
        </mxCell>
        <mxCell id="jZVaUwOg5UY3L9NAnvdq-129" style="edgeStyle=elbowEdgeStyle;rounded=0;orthogonalLoop=1;jettySize=auto;html=1;endArrow=open;endFill=0;strokeColor=#545B64;strokeWidth=2;fontSize=14;exitX=1;exitY=0.5;exitDx=0;exitDy=0;elbow=vertical;" parent="1" source="jZVaUwOg5UY3L9NAnvdq-62" target="jZVaUwOg5UY3L9NAnvdq-83" edge="1">
          <mxGeometry relative="1" as="geometry">
            <mxPoint x="220" y="462" as="sourcePoint" />
            <mxPoint x="482" y="428" as="targetPoint" />
          </mxGeometry>
        </mxCell>
        <mxCell id="jZVaUwOg5UY3L9NAnvdq-130" style="edgeStyle=elbowEdgeStyle;rounded=0;orthogonalLoop=1;jettySize=auto;html=1;endArrow=open;endFill=0;strokeColor=#545B64;strokeWidth=2;fontSize=14;" parent="1" target="jZVaUwOg5UY3L9NAnvdq-85" edge="1" source="jZVaUwOg5UY3L9NAnvdq-74">
          <mxGeometry relative="1" as="geometry">
            <mxPoint x="240" y="452" as="sourcePoint" />
            <mxPoint x="482" y="428" as="targetPoint" />
            <Array as="points">
              <mxPoint x="590" y="500" />
            </Array>
          </mxGeometry>
        </mxCell>
        <mxCell id="jZVaUwOg5UY3L9NAnvdq-158" style="edgeStyle=elbowEdgeStyle;rounded=0;orthogonalLoop=1;jettySize=auto;html=1;endArrow=open;endFill=0;strokeColor=#545B64;strokeWidth=2;fontSize=14;" parent="1" target="jZVaUwOg5UY3L9NAnvdq-73" edge="1">
          <mxGeometry relative="1" as="geometry">
            <mxPoint x="240" y="382" as="sourcePoint" />
            <mxPoint x="349" y="290" as="targetPoint" />
            <Array as="points">
              <mxPoint x="430" y="312" />
            </Array>
          </mxGeometry>
        </mxCell>
        <mxCell id="-QjtrjUzRDEMRZ5MF8oH-47" value="Cloud Observability App" style="text;html=1;resizable=0;points=[];autosize=1;align=left;verticalAlign=top;spacingTop=-4;fontSize=30;fontStyle=1;labelBackgroundColor=none;" parent="1" vertex="1">
          <mxGeometry x="36.5" y="26.5" width="360" height="40" as="geometry" />
        </mxCell>
        <mxCell id="-QjtrjUzRDEMRZ5MF8oH-48" value="PoC Draft" style="text;html=1;resizable=0;points=[];autosize=1;align=left;verticalAlign=top;spacingTop=-4;fontSize=16;labelBackgroundColor=none;" parent="1" vertex="1">
          <mxGeometry x="36.5" y="76.5" width="90" height="20" as="geometry" />
        </mxCell>
        <mxCell id="jZVaUwOg5UY3L9NAnvdq-59" value="Actors" style="swimlane;fontSize=14;align=center;swimlaneFillColor=#f4f4f4;fillColor=#f4f4f4;collapsible=0;startSize=33;" parent="1" vertex="1">
          <mxGeometry x="30" y="125" width="210" height="845" as="geometry" />
        </mxCell>
        <mxCell id="jZVaUwOg5UY3L9NAnvdq-60" value="Users" style="outlineConnect=0;fontColor=#232F3E;gradientColor=none;fillColor=#232F3E;strokeColor=none;dashed=0;verticalLabelPosition=bottom;verticalAlign=top;align=center;html=1;fontSize=12;fontStyle=0;aspect=fixed;pointerEvents=1;shape=mxgraph.aws4.user;labelBackgroundColor=none;" parent="jZVaUwOg5UY3L9NAnvdq-59" vertex="1">
          <mxGeometry x="16" y="54" width="78" height="78" as="geometry" />
        </mxCell>
        <mxCell id="jZVaUwOg5UY3L9NAnvdq-61" value="Clusters" style="outlineConnect=0;fontColor=#232F3E;gradientColor=none;fillColor=#232F3E;strokeColor=none;dashed=0;verticalLabelPosition=bottom;verticalAlign=top;align=center;html=1;fontSize=12;fontStyle=0;aspect=fixed;pointerEvents=1;shape=mxgraph.aws4.corporate_data_center;labelBackgroundColor=none;" parent="jZVaUwOg5UY3L9NAnvdq-59" vertex="1">
          <mxGeometry x="130" y="54" width="53" height="78" as="geometry" />
        </mxCell>
        <mxCell id="ck2-3J0O5yFSTgMgaM3f-27" style="edgeStyle=orthogonalEdgeStyle;rounded=0;orthogonalLoop=1;jettySize=auto;html=1;" edge="1" parent="1" source="jZVaUwOg5UY3L9NAnvdq-62" target="ck2-3J0O5yFSTgMgaM3f-26">
          <mxGeometry relative="1" as="geometry">
            <Array as="points">
              <mxPoint x="250" y="796" />
              <mxPoint x="250" y="796" />
            </Array>
          </mxGeometry>
        </mxCell>
        <mxCell id="jZVaUwOg5UY3L9NAnvdq-62" value="Channels" style="swimlane;fontSize=14;align=center;swimlaneFillColor=#f4f4f4;fillColor=#f4f4f4;collapsible=0;startSize=33;" parent="1" vertex="1">
          <mxGeometry x="30" y="302" width="210" height="668" as="geometry" />
        </mxCell>
        <mxCell id="jZVaUwOg5UY3L9NAnvdq-65" value="Mobile / Web&lt;br&gt;Telemetry" style="outlineConnect=0;fontColor=#232F3E;gradientColor=none;strokeColor=none;fillColor=#277116;dashed=0;verticalLabelPosition=bottom;verticalAlign=top;align=center;html=1;fontSize=12;fontStyle=0;shape=mxgraph.aws4.mobile_client;labelBackgroundColor=none;" parent="jZVaUwOg5UY3L9NAnvdq-62" vertex="1">
          <mxGeometry x="67.5" y="57.5" width="53" height="100" as="geometry" />
        </mxCell>
        <mxCell id="jZVaUwOg5UY3L9NAnvdq-95" value="Cloud Agents" style="outlineConnect=0;fontColor=#232F3E;gradientColor=none;fillColor=#277116;strokeColor=none;dashed=0;verticalLabelPosition=bottom;verticalAlign=top;align=center;html=1;fontSize=12;fontStyle=0;aspect=fixed;pointerEvents=1;shape=mxgraph.aws4.external_sdk;labelBackgroundColor=none;" parent="jZVaUwOg5UY3L9NAnvdq-62" vertex="1">
          <mxGeometry x="60" y="283" width="68" height="78" as="geometry" />
        </mxCell>
        <mxCell id="ck2-3J0O5yFSTgMgaM3f-37" value="Frontend UI" style="pointerEvents=1;shadow=0;dashed=0;html=1;strokeColor=#006633;fillColor=#434445;aspect=fixed;labelPosition=center;verticalLabelPosition=bottom;verticalAlign=top;align=center;outlineConnect=0;shape=mxgraph.vvd.web_browser;" vertex="1" parent="jZVaUwOg5UY3L9NAnvdq-62">
          <mxGeometry x="52.05" y="567.22" width="83.9" height="59.57" as="geometry" />
        </mxCell>
        <mxCell id="jZVaUwOg5UY3L9NAnvdq-76" value="ElasticSearch" style="outlineConnect=0;fontColor=#232F3E;gradientColor=#945DF2;gradientDirection=north;fillColor=#5A30B5;strokeColor=#ffffff;dashed=0;verticalLabelPosition=bottom;verticalAlign=top;align=center;html=1;fontSize=12;fontStyle=0;aspect=fixed;shape=mxgraph.aws4.resourceIcon;resIcon=mxgraph.aws4.elasticsearch_service;labelBackgroundColor=none;" parent="1" vertex="1">
          <mxGeometry x="1020" y="733.5" width="78" height="78" as="geometry" />
        </mxCell>
        <mxCell id="ck2-3J0O5yFSTgMgaM3f-22" style="edgeStyle=orthogonalEdgeStyle;rounded=0;orthogonalLoop=1;jettySize=auto;html=1;" edge="1" parent="1" source="jZVaUwOg5UY3L9NAnvdq-77" target="jZVaUwOg5UY3L9NAnvdq-76">
          <mxGeometry relative="1" as="geometry" />
        </mxCell>
        <mxCell id="jZVaUwOg5UY3L9NAnvdq-77" value="DWH Data Streams" style="outlineConnect=0;fontColor=#232F3E;gradientColor=#4D72F3;gradientDirection=north;fillColor=#3334B9;strokeColor=#ffffff;dashed=0;verticalLabelPosition=bottom;verticalAlign=top;align=center;html=1;fontSize=12;fontStyle=0;aspect=fixed;shape=mxgraph.aws4.resourceIcon;resIcon=mxgraph.aws4.dynamodb;labelBackgroundColor=#ffffff;spacingTop=6;" parent="1" vertex="1">
          <mxGeometry x="1020.0000000000002" y="576" width="78" height="78" as="geometry" />
        </mxCell>
        <mxCell id="ck2-3J0O5yFSTgMgaM3f-44" style="edgeStyle=orthogonalEdgeStyle;rounded=0;orthogonalLoop=1;jettySize=auto;html=1;" edge="1" parent="1" source="jZVaUwOg5UY3L9NAnvdq-81" target="ck2-3J0O5yFSTgMgaM3f-42">
          <mxGeometry relative="1" as="geometry" />
        </mxCell>
        <mxCell id="jZVaUwOg5UY3L9NAnvdq-81" value="DWH (ClickHouse)" style="outlineConnect=0;fontColor=#232F3E;gradientColor=#4D72F3;gradientDirection=north;fillColor=#3334B9;strokeColor=#ffffff;dashed=0;verticalLabelPosition=bottom;verticalAlign=top;align=center;html=1;fontSize=12;fontStyle=0;aspect=fixed;shape=mxgraph.aws4.resourceIcon;resIcon=mxgraph.aws4.dynamodb;labelBackgroundColor=#ffffff;" parent="1" vertex="1">
          <mxGeometry x="840.0000000000003" y="576" width="78" height="78" as="geometry" />
        </mxCell>
        <mxCell id="ck2-3J0O5yFSTgMgaM3f-30" value="JWTs" style="edgeStyle=orthogonalEdgeStyle;rounded=0;orthogonalLoop=1;jettySize=auto;html=1;" edge="1" parent="1" source="jZVaUwOg5UY3L9NAnvdq-83" target="jZVaUwOg5UY3L9NAnvdq-74">
          <mxGeometry relative="1" as="geometry" />
        </mxCell>
        <mxCell id="jZVaUwOg5UY3L9NAnvdq-83" value="OAUTH" style="outlineConnect=0;fontColor=#232F3E;gradientColor=#F54749;gradientDirection=north;fillColor=#C7131F;strokeColor=#ffffff;dashed=0;verticalLabelPosition=bottom;verticalAlign=top;align=center;html=1;fontSize=12;fontStyle=0;aspect=fixed;shape=mxgraph.aws4.resourceIcon;resIcon=mxgraph.aws4.cognito;labelBackgroundColor=none;" parent="1" vertex="1">
          <mxGeometry x="320" y="597" width="78" height="78" as="geometry" />
        </mxCell>
        <mxCell id="jZVaUwOg5UY3L9NAnvdq-85" value="Kafka" style="outlineConnect=0;fontColor=#232F3E;gradientColor=#60A337;gradientDirection=north;fillColor=#277116;strokeColor=#ffffff;dashed=0;verticalLabelPosition=bottom;verticalAlign=top;align=center;html=1;fontSize=12;fontStyle=0;aspect=fixed;shape=mxgraph.aws4.resourceIcon;resIcon=mxgraph.aws4.iot_core;labelBackgroundColor=none;" parent="1" vertex="1">
          <mxGeometry x="559" y="576" width="78" height="78" as="geometry" />
        </mxCell>
        <mxCell id="ck2-3J0O5yFSTgMgaM3f-15" style="edgeStyle=orthogonalEdgeStyle;rounded=0;orthogonalLoop=1;jettySize=auto;html=1;" edge="1" parent="1" source="jZVaUwOg5UY3L9NAnvdq-73" target="ck2-3J0O5yFSTgMgaM3f-14">
          <mxGeometry relative="1" as="geometry" />
        </mxCell>
        <mxCell id="jZVaUwOg5UY3L9NAnvdq-73" value="Amazon S3" style="outlineConnect=0;fontColor=#232F3E;gradientColor=#60A337;gradientDirection=north;fillColor=#277116;strokeColor=#ffffff;dashed=0;verticalLabelPosition=bottom;verticalAlign=top;align=center;html=1;fontSize=12;fontStyle=0;aspect=fixed;shape=mxgraph.aws4.resourceIcon;resIcon=mxgraph.aws4.s3;labelBackgroundColor=none;" parent="1" vertex="1">
          <mxGeometry x="528" y="190.5" width="78" height="78" as="geometry" />
        </mxCell>
        <mxCell id="ck2-3J0O5yFSTgMgaM3f-17" style="edgeStyle=orthogonalEdgeStyle;rounded=0;orthogonalLoop=1;jettySize=auto;html=1;" edge="1" parent="1" source="ck2-3J0O5yFSTgMgaM3f-12" target="jZVaUwOg5UY3L9NAnvdq-81">
          <mxGeometry relative="1" as="geometry" />
        </mxCell>
        <mxCell id="ck2-3J0O5yFSTgMgaM3f-29" style="edgeStyle=orthogonalEdgeStyle;rounded=0;orthogonalLoop=1;jettySize=auto;html=1;" edge="1" parent="1" source="ck2-3J0O5yFSTgMgaM3f-12" target="jZVaUwOg5UY3L9NAnvdq-76">
          <mxGeometry relative="1" as="geometry">
            <Array as="points">
              <mxPoint x="728" y="773" />
            </Array>
          </mxGeometry>
        </mxCell>
        <mxCell id="ck2-3J0O5yFSTgMgaM3f-12" value="Stream Processors" style="outlineConnect=0;dashed=0;verticalLabelPosition=bottom;verticalAlign=top;align=center;html=1;shape=mxgraph.aws3.lambda;fillColor=#F58534;gradientColor=none;" vertex="1" parent="1">
          <mxGeometry x="690" y="568.5" width="76.5" height="93" as="geometry" />
        </mxCell>
        <mxCell id="ck2-3J0O5yFSTgMgaM3f-13" value="" style="edgeStyle=elbowEdgeStyle;rounded=0;orthogonalLoop=1;jettySize=auto;html=1;endArrow=open;endFill=0;strokeColor=#545B64;strokeWidth=2;fontSize=14;" edge="1" parent="1" source="jZVaUwOg5UY3L9NAnvdq-85" target="ck2-3J0O5yFSTgMgaM3f-12">
          <mxGeometry relative="1" as="geometry">
            <mxPoint x="559" y="577" as="sourcePoint" />
            <mxPoint x="770" y="578" as="targetPoint" />
          </mxGeometry>
        </mxCell>
        <mxCell id="ck2-3J0O5yFSTgMgaM3f-16" style="edgeStyle=orthogonalEdgeStyle;rounded=0;orthogonalLoop=1;jettySize=auto;html=1;" edge="1" parent="1" source="ck2-3J0O5yFSTgMgaM3f-14" target="jZVaUwOg5UY3L9NAnvdq-81">
          <mxGeometry relative="1" as="geometry" />
        </mxCell>
        <mxCell id="ck2-3J0O5yFSTgMgaM3f-14" value="Batch Processors" style="outlineConnect=0;dashed=0;verticalLabelPosition=bottom;verticalAlign=top;align=center;html=1;shape=mxgraph.aws3.lambda;fillColor=#F58534;gradientColor=none;" vertex="1" parent="1">
          <mxGeometry x="690" y="323.5" width="76.5" height="93" as="geometry" />
        </mxCell>
        <mxCell id="ck2-3J0O5yFSTgMgaM3f-28" style="edgeStyle=orthogonalEdgeStyle;rounded=0;orthogonalLoop=1;jettySize=auto;html=1;" edge="1" parent="1" source="ck2-3J0O5yFSTgMgaM3f-26" target="jZVaUwOg5UY3L9NAnvdq-85">
          <mxGeometry relative="1" as="geometry" />
        </mxCell>
        <mxCell id="ck2-3J0O5yFSTgMgaM3f-26" value="NLB" style="outlineConnect=0;dashed=0;verticalLabelPosition=bottom;verticalAlign=top;align=center;html=1;shape=mxgraph.aws3.classic_load_balancer;fillColor=#F58534;gradientColor=none;" vertex="1" parent="1">
          <mxGeometry x="329" y="760" width="69" height="72" as="geometry" />
        </mxCell>
        <mxCell id="ck2-3J0O5yFSTgMgaM3f-39" style="edgeStyle=orthogonalEdgeStyle;rounded=0;orthogonalLoop=1;jettySize=auto;html=1;" edge="1" parent="1" source="ck2-3J0O5yFSTgMgaM3f-42" target="jZVaUwOg5UY3L9NAnvdq-76">
          <mxGeometry relative="1" as="geometry" />
        </mxCell>
        <mxCell id="ck2-3J0O5yFSTgMgaM3f-34" value="Egress APIs" style="outlineConnect=0;fontColor=#232F3E;gradientColor=#945DF2;gradientDirection=north;fillColor=#5A30B5;strokeColor=#ffffff;dashed=0;verticalLabelPosition=bottom;verticalAlign=top;align=center;html=1;fontSize=12;fontStyle=0;aspect=fixed;shape=mxgraph.aws4.resourceIcon;resIcon=mxgraph.aws4.api_gateway;labelBackgroundColor=none;" vertex="1" parent="1">
          <mxGeometry x="450" y="860" width="78" height="78" as="geometry" />
        </mxCell>
        <mxCell id="ck2-3J0O5yFSTgMgaM3f-38" style="edgeStyle=orthogonalEdgeStyle;rounded=0;orthogonalLoop=1;jettySize=auto;html=1;" edge="1" parent="1" source="ck2-3J0O5yFSTgMgaM3f-37" target="ck2-3J0O5yFSTgMgaM3f-34">
          <mxGeometry relative="1" as="geometry" />
        </mxCell>
        <mxCell id="ck2-3J0O5yFSTgMgaM3f-42" value="Request Processors" style="shape=image;html=1;verticalAlign=top;verticalLabelPosition=bottom;labelBackgroundColor=#ffffff;imageAspect=0;aspect=fixed;image=https://cdn3.iconfinder.com/data/icons/social-media-2169/24/social_media_social_media_logo_docker-128.png;strokeColor=#006633;fillColor=none;" vertex="1" parent="1">
          <mxGeometry x="835" y="855" width="88" height="88" as="geometry" />
        </mxCell>
        <mxCell id="ck2-3J0O5yFSTgMgaM3f-43" style="edgeStyle=orthogonalEdgeStyle;rounded=0;orthogonalLoop=1;jettySize=auto;html=1;" edge="1" parent="1" source="ck2-3J0O5yFSTgMgaM3f-34" target="ck2-3J0O5yFSTgMgaM3f-42">
          <mxGeometry relative="1" as="geometry">
            <mxPoint x="528.0000000000005" y="899.0588235294119" as="sourcePoint" />
            <mxPoint x="1059" y="811.5" as="targetPoint" />
          </mxGeometry>
        </mxCell>
        <mxCell id="ck2-3J0O5yFSTgMgaM3f-45" value="&lt;font color=&quot;#000000&quot;&gt;Ingestors&lt;/font&gt;" style="aspect=fixed;perimeter=ellipsePerimeter;html=1;align=center;shadow=0;dashed=0;fontColor=#4277BB;labelBackgroundColor=#ffffff;fontSize=12;spacingTop=3;image;image=img/lib/ibm/infrastructure/mobile_backend.svg;strokeColor=#006633;fillColor=none;" vertex="1" parent="1">
          <mxGeometry x="490" y="766" width="60" height="60" as="geometry" />
        </mxCell>
        <mxCell id="ck2-3J0O5yFSTgMgaM3f-47" value="" style="rounded=0;whiteSpace=wrap;html=1;strokeColor=none;fillColor=#FFFFFF;shadow=0;sketch=1;fillStyle=cross-hatch;" vertex="1" parent="1">
          <mxGeometry x="290" y="150" width="870" height="370" as="geometry" />
        </mxCell>
        <mxCell id="ck2-3J0O5yFSTgMgaM3f-48" value="" style="rounded=0;whiteSpace=wrap;html=1;strokeColor=none;fillColor=#FFFFFF;shadow=0;sketch=1;fillStyle=cross-hatch;" vertex="1" parent="1">
          <mxGeometry x="930" y="520" width="230" height="220" as="geometry" />
        </mxCell>
        <mxCell id="ck2-3J0O5yFSTgMgaM3f-49" value="" style="rounded=0;whiteSpace=wrap;html=1;strokeColor=none;fillColor=#FFFFFF;shadow=0;sketch=1;fillStyle=cross-hatch;" vertex="1" parent="1">
          <mxGeometry x="244" y="500" width="296" height="220" as="geometry" />
        </mxCell>
      </root>
    </mxGraphModel>
  </diagram>
  <diagram name="Switchover" id="ad-Q2lWXfo7p2j4JOzis">
    <mxGraphModel dx="1422" dy="809" grid="1" gridSize="10" guides="1" tooltips="1" connect="1" arrows="1" fold="1" page="1" pageScale="1" pageWidth="827" pageHeight="1169" math="0" shadow="0">
      <root>
        <mxCell id="fHVYt9qv3DbKkcmbVvuy-0" />
        <mxCell id="fHVYt9qv3DbKkcmbVvuy-1" parent="fHVYt9qv3DbKkcmbVvuy-0" />
        <mxCell id="fHVYt9qv3DbKkcmbVvuy-2" value="" style="rounded=0;whiteSpace=wrap;html=1;fillColor=none;" vertex="1" parent="fHVYt9qv3DbKkcmbVvuy-1">
          <mxGeometry x="20" y="110" width="1220" height="860" as="geometry" />
        </mxCell>
        <mxCell id="fHVYt9qv3DbKkcmbVvuy-3" value="Ingress API" style="outlineConnect=0;fontColor=#232F3E;gradientColor=#945DF2;gradientDirection=north;fillColor=#5A30B5;strokeColor=#ffffff;dashed=0;verticalLabelPosition=bottom;verticalAlign=top;align=center;html=1;fontSize=12;fontStyle=0;aspect=fixed;shape=mxgraph.aws4.resourceIcon;resIcon=mxgraph.aws4.api_gateway;labelBackgroundColor=none;" vertex="1" parent="fHVYt9qv3DbKkcmbVvuy-1">
          <mxGeometry x="450" y="378.99999999999994" width="78" height="78" as="geometry" />
        </mxCell>
        <mxCell id="fHVYt9qv3DbKkcmbVvuy-4" style="edgeStyle=elbowEdgeStyle;rounded=0;orthogonalLoop=1;jettySize=auto;html=1;endArrow=open;endFill=0;strokeColor=#545B64;strokeWidth=2;fontSize=14;" edge="1" parent="fHVYt9qv3DbKkcmbVvuy-1" target="fHVYt9qv3DbKkcmbVvuy-3">
          <mxGeometry relative="1" as="geometry">
            <mxPoint x="240" y="418" as="sourcePoint" />
          </mxGeometry>
        </mxCell>
        <mxCell id="fHVYt9qv3DbKkcmbVvuy-5" value="" style="edgeStyle=elbowEdgeStyle;rounded=0;orthogonalLoop=1;jettySize=auto;html=1;endArrow=open;endFill=0;strokeColor=#545B64;strokeWidth=2;fontSize=14;" edge="1" parent="fHVYt9qv3DbKkcmbVvuy-1" source="fHVYt9qv3DbKkcmbVvuy-23" target="fHVYt9qv3DbKkcmbVvuy-21">
          <mxGeometry relative="1" as="geometry" />
        </mxCell>
        <mxCell id="fHVYt9qv3DbKkcmbVvuy-6" style="edgeStyle=elbowEdgeStyle;rounded=0;orthogonalLoop=1;jettySize=auto;html=1;endArrow=open;endFill=0;strokeColor=#545B64;strokeWidth=2;fontSize=14;exitX=1;exitY=0.5;exitDx=0;exitDy=0;elbow=vertical;" edge="1" parent="fHVYt9qv3DbKkcmbVvuy-1" source="fHVYt9qv3DbKkcmbVvuy-15" target="fHVYt9qv3DbKkcmbVvuy-25">
          <mxGeometry relative="1" as="geometry">
            <mxPoint x="220" y="462" as="sourcePoint" />
            <mxPoint x="482" y="428" as="targetPoint" />
          </mxGeometry>
        </mxCell>
        <mxCell id="fHVYt9qv3DbKkcmbVvuy-7" style="edgeStyle=elbowEdgeStyle;rounded=0;orthogonalLoop=1;jettySize=auto;html=1;endArrow=open;endFill=0;strokeColor=#545B64;strokeWidth=2;fontSize=14;" edge="1" parent="fHVYt9qv3DbKkcmbVvuy-1" source="fHVYt9qv3DbKkcmbVvuy-3" target="fHVYt9qv3DbKkcmbVvuy-31">
          <mxGeometry relative="1" as="geometry">
            <mxPoint x="240" y="452" as="sourcePoint" />
            <mxPoint x="590" y="576" as="targetPoint" />
            <Array as="points">
              <mxPoint x="590" y="500" />
            </Array>
          </mxGeometry>
        </mxCell>
        <mxCell id="fHVYt9qv3DbKkcmbVvuy-9" value="Cloud Observability App" style="text;html=1;resizable=0;points=[];autosize=1;align=left;verticalAlign=top;spacingTop=-4;fontSize=30;fontStyle=1;labelBackgroundColor=none;" vertex="1" parent="fHVYt9qv3DbKkcmbVvuy-1">
          <mxGeometry x="36.5" y="26.5" width="360" height="40" as="geometry" />
        </mxCell>
        <mxCell id="fHVYt9qv3DbKkcmbVvuy-10" value="PoC Draft" style="text;html=1;resizable=0;points=[];autosize=1;align=left;verticalAlign=top;spacingTop=-4;fontSize=16;labelBackgroundColor=none;" vertex="1" parent="fHVYt9qv3DbKkcmbVvuy-1">
          <mxGeometry x="36.5" y="76.5" width="90" height="20" as="geometry" />
        </mxCell>
        <mxCell id="fHVYt9qv3DbKkcmbVvuy-11" value="Actors" style="swimlane;fontSize=14;align=center;swimlaneFillColor=#f4f4f4;fillColor=#f4f4f4;collapsible=0;startSize=33;" vertex="1" parent="fHVYt9qv3DbKkcmbVvuy-1">
          <mxGeometry x="30" y="125" width="210" height="845" as="geometry" />
        </mxCell>
        <mxCell id="fHVYt9qv3DbKkcmbVvuy-12" value="Users" style="outlineConnect=0;fontColor=#232F3E;gradientColor=none;fillColor=#232F3E;strokeColor=none;dashed=0;verticalLabelPosition=bottom;verticalAlign=top;align=center;html=1;fontSize=12;fontStyle=0;aspect=fixed;pointerEvents=1;shape=mxgraph.aws4.user;labelBackgroundColor=none;" vertex="1" parent="fHVYt9qv3DbKkcmbVvuy-11">
          <mxGeometry x="16" y="54" width="78" height="78" as="geometry" />
        </mxCell>
        <mxCell id="fHVYt9qv3DbKkcmbVvuy-13" value="Clusters" style="outlineConnect=0;fontColor=#232F3E;gradientColor=none;fillColor=#232F3E;strokeColor=none;dashed=0;verticalLabelPosition=bottom;verticalAlign=top;align=center;html=1;fontSize=12;fontStyle=0;aspect=fixed;pointerEvents=1;shape=mxgraph.aws4.corporate_data_center;labelBackgroundColor=none;" vertex="1" parent="fHVYt9qv3DbKkcmbVvuy-11">
          <mxGeometry x="130" y="54" width="53" height="78" as="geometry" />
        </mxCell>
        <mxCell id="fHVYt9qv3DbKkcmbVvuy-15" value="Channels" style="swimlane;fontSize=14;align=center;swimlaneFillColor=#f4f4f4;fillColor=#f4f4f4;collapsible=0;startSize=33;" vertex="1" parent="fHVYt9qv3DbKkcmbVvuy-1">
          <mxGeometry x="30" y="302" width="210" height="668" as="geometry" />
        </mxCell>
        <mxCell id="fHVYt9qv3DbKkcmbVvuy-16" value="Mobile / Web&lt;br&gt;Telemetry" style="outlineConnect=0;fontColor=#232F3E;gradientColor=none;strokeColor=none;fillColor=#277116;dashed=0;verticalLabelPosition=bottom;verticalAlign=top;align=center;html=1;fontSize=12;fontStyle=0;shape=mxgraph.aws4.mobile_client;labelBackgroundColor=none;" vertex="1" parent="fHVYt9qv3DbKkcmbVvuy-15">
          <mxGeometry x="67.5" y="57.5" width="53" height="100" as="geometry" />
        </mxCell>
        <mxCell id="fHVYt9qv3DbKkcmbVvuy-17" value="Cloud Agents" style="outlineConnect=0;fontColor=#232F3E;gradientColor=none;fillColor=#277116;strokeColor=none;dashed=0;verticalLabelPosition=bottom;verticalAlign=top;align=center;html=1;fontSize=12;fontStyle=0;aspect=fixed;pointerEvents=1;shape=mxgraph.aws4.external_sdk;labelBackgroundColor=none;" vertex="1" parent="fHVYt9qv3DbKkcmbVvuy-15">
          <mxGeometry x="60" y="283" width="68" height="78" as="geometry" />
        </mxCell>
        <mxCell id="fHVYt9qv3DbKkcmbVvuy-18" value="Frontend UI" style="pointerEvents=1;shadow=0;dashed=0;html=1;strokeColor=#006633;fillColor=#434445;aspect=fixed;labelPosition=center;verticalLabelPosition=bottom;verticalAlign=top;align=center;outlineConnect=0;shape=mxgraph.vvd.web_browser;" vertex="1" parent="fHVYt9qv3DbKkcmbVvuy-15">
          <mxGeometry x="52.05" y="567.22" width="83.9" height="59.57" as="geometry" />
        </mxCell>
        <mxCell id="fHVYt9qv3DbKkcmbVvuy-19" value="ElasticSearch" style="outlineConnect=0;fontColor=#232F3E;gradientColor=#945DF2;gradientDirection=north;fillColor=#5A30B5;strokeColor=#ffffff;dashed=0;verticalLabelPosition=bottom;verticalAlign=top;align=center;html=1;fontSize=12;fontStyle=0;aspect=fixed;shape=mxgraph.aws4.resourceIcon;resIcon=mxgraph.aws4.elasticsearch_service;labelBackgroundColor=none;" vertex="1" parent="fHVYt9qv3DbKkcmbVvuy-1">
          <mxGeometry x="1020" y="733.5" width="78" height="78" as="geometry" />
        </mxCell>
        <mxCell id="fHVYt9qv3DbKkcmbVvuy-20" style="edgeStyle=orthogonalEdgeStyle;rounded=0;orthogonalLoop=1;jettySize=auto;html=1;" edge="1" parent="fHVYt9qv3DbKkcmbVvuy-1" source="fHVYt9qv3DbKkcmbVvuy-21" target="fHVYt9qv3DbKkcmbVvuy-19">
          <mxGeometry relative="1" as="geometry" />
        </mxCell>
        <mxCell id="fHVYt9qv3DbKkcmbVvuy-21" value="DWH Data Streams" style="outlineConnect=0;fontColor=#232F3E;gradientColor=#4D72F3;gradientDirection=north;fillColor=#3334B9;strokeColor=#ffffff;dashed=0;verticalLabelPosition=bottom;verticalAlign=top;align=center;html=1;fontSize=12;fontStyle=0;aspect=fixed;shape=mxgraph.aws4.resourceIcon;resIcon=mxgraph.aws4.dynamodb;labelBackgroundColor=#ffffff;spacingTop=6;" vertex="1" parent="fHVYt9qv3DbKkcmbVvuy-1">
          <mxGeometry x="1020.0000000000002" y="576" width="78" height="78" as="geometry" />
        </mxCell>
        <mxCell id="fHVYt9qv3DbKkcmbVvuy-22" style="edgeStyle=orthogonalEdgeStyle;rounded=0;orthogonalLoop=1;jettySize=auto;html=1;" edge="1" parent="fHVYt9qv3DbKkcmbVvuy-1" source="fHVYt9qv3DbKkcmbVvuy-23" target="fHVYt9qv3DbKkcmbVvuy-40">
          <mxGeometry relative="1" as="geometry" />
        </mxCell>
        <mxCell id="fHVYt9qv3DbKkcmbVvuy-23" value="DWH (ClickHouse)" style="outlineConnect=0;fontColor=#232F3E;gradientColor=#4D72F3;gradientDirection=north;fillColor=#3334B9;strokeColor=#ffffff;dashed=0;verticalLabelPosition=bottom;verticalAlign=top;align=center;html=1;fontSize=12;fontStyle=0;aspect=fixed;shape=mxgraph.aws4.resourceIcon;resIcon=mxgraph.aws4.dynamodb;labelBackgroundColor=#ffffff;" vertex="1" parent="fHVYt9qv3DbKkcmbVvuy-1">
          <mxGeometry x="840.0000000000003" y="576" width="78" height="78" as="geometry" />
        </mxCell>
        <mxCell id="fHVYt9qv3DbKkcmbVvuy-24" value="JWTs" style="edgeStyle=orthogonalEdgeStyle;rounded=0;orthogonalLoop=1;jettySize=auto;html=1;" edge="1" parent="fHVYt9qv3DbKkcmbVvuy-1" source="fHVYt9qv3DbKkcmbVvuy-25" target="fHVYt9qv3DbKkcmbVvuy-3">
          <mxGeometry relative="1" as="geometry" />
        </mxCell>
        <mxCell id="fHVYt9qv3DbKkcmbVvuy-25" value="OAUTH" style="outlineConnect=0;fontColor=#232F3E;gradientColor=#F54749;gradientDirection=north;fillColor=#C7131F;strokeColor=#ffffff;dashed=0;verticalLabelPosition=bottom;verticalAlign=top;align=center;html=1;fontSize=12;fontStyle=0;aspect=fixed;shape=mxgraph.aws4.resourceIcon;resIcon=mxgraph.aws4.cognito;labelBackgroundColor=none;" vertex="1" parent="fHVYt9qv3DbKkcmbVvuy-1">
          <mxGeometry x="320" y="597" width="78" height="78" as="geometry" />
        </mxCell>
        <mxCell id="fHVYt9qv3DbKkcmbVvuy-29" style="edgeStyle=orthogonalEdgeStyle;rounded=0;orthogonalLoop=1;jettySize=auto;html=1;" edge="1" parent="fHVYt9qv3DbKkcmbVvuy-1" source="fHVYt9qv3DbKkcmbVvuy-31" target="fHVYt9qv3DbKkcmbVvuy-23">
          <mxGeometry relative="1" as="geometry" />
        </mxCell>
        <mxCell id="fHVYt9qv3DbKkcmbVvuy-31" value="Stream Processors" style="outlineConnect=0;dashed=0;verticalLabelPosition=bottom;verticalAlign=top;align=center;html=1;shape=mxgraph.aws3.lambda;fillColor=#F58534;gradientColor=none;" vertex="1" parent="fHVYt9qv3DbKkcmbVvuy-1">
          <mxGeometry x="690" y="568.5" width="76.5" height="93" as="geometry" />
        </mxCell>
        <mxCell id="fHVYt9qv3DbKkcmbVvuy-32" value="" style="edgeStyle=elbowEdgeStyle;rounded=0;orthogonalLoop=1;jettySize=auto;html=1;endArrow=open;endFill=0;strokeColor=#545B64;strokeWidth=2;fontSize=14;" edge="1" parent="fHVYt9qv3DbKkcmbVvuy-1" target="fHVYt9qv3DbKkcmbVvuy-31">
          <mxGeometry relative="1" as="geometry">
            <mxPoint x="637" y="615" as="sourcePoint" />
            <mxPoint x="770" y="578" as="targetPoint" />
          </mxGeometry>
        </mxCell>
        <mxCell id="fHVYt9qv3DbKkcmbVvuy-37" style="edgeStyle=orthogonalEdgeStyle;rounded=0;orthogonalLoop=1;jettySize=auto;html=1;" edge="1" parent="fHVYt9qv3DbKkcmbVvuy-1" source="fHVYt9qv3DbKkcmbVvuy-40" target="fHVYt9qv3DbKkcmbVvuy-19">
          <mxGeometry relative="1" as="geometry" />
        </mxCell>
        <mxCell id="fHVYt9qv3DbKkcmbVvuy-38" value="Egress APIs" style="outlineConnect=0;fontColor=#232F3E;gradientColor=#945DF2;gradientDirection=north;fillColor=#5A30B5;strokeColor=#ffffff;dashed=0;verticalLabelPosition=bottom;verticalAlign=top;align=center;html=1;fontSize=12;fontStyle=0;aspect=fixed;shape=mxgraph.aws4.resourceIcon;resIcon=mxgraph.aws4.api_gateway;labelBackgroundColor=none;" vertex="1" parent="fHVYt9qv3DbKkcmbVvuy-1">
          <mxGeometry x="450" y="860" width="78" height="78" as="geometry" />
        </mxCell>
        <mxCell id="fHVYt9qv3DbKkcmbVvuy-39" style="edgeStyle=orthogonalEdgeStyle;rounded=0;orthogonalLoop=1;jettySize=auto;html=1;" edge="1" parent="fHVYt9qv3DbKkcmbVvuy-1" source="fHVYt9qv3DbKkcmbVvuy-18" target="fHVYt9qv3DbKkcmbVvuy-38">
          <mxGeometry relative="1" as="geometry" />
        </mxCell>
        <mxCell id="fHVYt9qv3DbKkcmbVvuy-40" value="Request Processors" style="shape=image;html=1;verticalAlign=top;verticalLabelPosition=bottom;labelBackgroundColor=#ffffff;imageAspect=0;aspect=fixed;image=https://cdn3.iconfinder.com/data/icons/social-media-2169/24/social_media_social_media_logo_docker-128.png;strokeColor=#006633;fillColor=none;" vertex="1" parent="fHVYt9qv3DbKkcmbVvuy-1">
          <mxGeometry x="835" y="855" width="88" height="88" as="geometry" />
        </mxCell>
        <mxCell id="fHVYt9qv3DbKkcmbVvuy-41" style="edgeStyle=orthogonalEdgeStyle;rounded=0;orthogonalLoop=1;jettySize=auto;html=1;" edge="1" parent="fHVYt9qv3DbKkcmbVvuy-1" source="fHVYt9qv3DbKkcmbVvuy-38" target="fHVYt9qv3DbKkcmbVvuy-40">
          <mxGeometry relative="1" as="geometry">
            <mxPoint x="528.0000000000005" y="899.0588235294119" as="sourcePoint" />
            <mxPoint x="1059" y="811.5" as="targetPoint" />
          </mxGeometry>
        </mxCell>
      </root>
    </mxGraphModel>
  </diagram>
</mxfile>
